<svg enable-background="new 0 0 512 512" viewBox="0 0 512 512" xmlns="http://www.w3.org/2000/svg"><g fill="#ff6f1f"><path d="m55.187 73h83.541v104.705h-83.541z"/><circle cx="129.088" cy="77.691" r="73.9"/><path d="m439.814 427.451h-297.662c-20.544 0-37.199-16.654-37.199-37.199v-349.012c0-20.544 1.004-37.199 21.549-37.199h301.431c27.106 0 49.08 21.974 49.08 49.08v337.131c0 20.545-16.655 37.199-37.199 37.199z"/></g><path d="m455.931 67.945c0-21.992-20.75-39.972-46.96-41.336v-.093h-279.883c-20.407 0-36.95 12.668-36.95 28.294s16.543 28.294 36.95 28.294v.485h202.802v390.972l73.882 8.673c28.693 0 50.159-56.776 50.159-84.813v-328.506h-.06c.037-.653.06-1.309.06-1.97z" fill="#dce2e2"/><path d="m390.578 507h-298.721c-20.252 0-36.669-16.417-36.669-36.669v-350.072c0-20.252 53.649-36.669 73.9-36.669h261.49c20.252 0 36.669 16.417 36.669 36.669v350.071c0 20.253-16.417 36.67-36.669 36.67z" fill="#f2a74e"/><path d="m131.234 507h-40.633c-19.558 0-35.414-15.855-35.414-35.414v-387.996h76.046v423.41z" fill="#ff6f1f"/><path d="m333.49 240.399h-132.944c-7.953 0-14.4-6.447-14.4-14.4v-50.115c0-7.953 6.447-14.4 14.4-14.4h132.944c7.953 0 14.4 6.447 14.4 14.4v50.115c0 7.953-6.447 14.4-14.4 14.4z" fill="#2b3b47"/></svg>